<svg width="12" height="12" viewBox="0 0 12 12" fill="none" xmlns="http://www.w3.org/2000/svg">
<path d="M10.6329 10.4991H1.36644C1.18781 10.4991 1.02275 10.4038 0.933439 10.2491C0.844126 10.0944 0.844127 9.90376 0.933442 9.74906L5.56644 1.74906C5.65583 1.59461 5.82075 1.49951 5.99919 1.49951C6.17764 1.49951 6.34256 1.59461 6.43194 1.74906L11.0649 9.74906C11.1542 9.90368 11.1543 10.0942 11.0651 10.2488C10.9759 10.4035 10.811 10.4989 10.6324 10.4991H10.6329ZM5.99994 2.99906L2.23444 9.49906H9.76644L5.99994 2.99906ZM6.49744 7.49956H5.49744V4.99906H6.49744V7.49956Z" fill="#100F12"/>
<path d="M5.49994 8.00006H6.49994V9.00006H5.49994V8.00006Z" fill="#100F12"/>
</svg>
